<mxfile host="app.diagrams.net" agent="Mozilla/5.0 (Windows NT 10.0; Win64; x64) AppleWebKit/537.36 (KHTML, like Gecko) Chrome/129.0.0.0 Safari/537.36" version="25.0.3">
  <diagram name="Page-1" id="74e2e168-ea6b-b213-b513-2b3c1d86103e">
    <mxGraphModel dx="740" dy="363" grid="1" gridSize="10" guides="1" tooltips="1" connect="1" arrows="1" fold="1" page="1" pageScale="1" pageWidth="1100" pageHeight="850" background="none" math="0" shadow="0">
      <root>
        <mxCell id="0" />
        <mxCell id="1" parent="0" />
        <mxCell id="IDwPl4FT_pPwottrv6kI-9" style="edgeStyle=orthogonalEdgeStyle;rounded=1;orthogonalLoop=1;jettySize=auto;html=1;exitX=0.5;exitY=1;exitDx=0;exitDy=0;entryX=0.5;entryY=0;entryDx=0;entryDy=0;labelBackgroundColor=none;fontColor=default;" edge="1" parent="1" source="IDwPl4FT_pPwottrv6kI-1" target="IDwPl4FT_pPwottrv6kI-3">
          <mxGeometry relative="1" as="geometry" />
        </mxCell>
        <mxCell id="IDwPl4FT_pPwottrv6kI-45" style="edgeStyle=orthogonalEdgeStyle;rounded=1;orthogonalLoop=1;jettySize=auto;html=1;exitX=1;exitY=0.5;exitDx=0;exitDy=0;entryX=0.5;entryY=0;entryDx=0;entryDy=0;" edge="1" parent="1" source="IDwPl4FT_pPwottrv6kI-1" target="IDwPl4FT_pPwottrv6kI-12">
          <mxGeometry relative="1" as="geometry" />
        </mxCell>
        <mxCell id="IDwPl4FT_pPwottrv6kI-76" style="edgeStyle=orthogonalEdgeStyle;rounded=1;orthogonalLoop=1;jettySize=auto;html=1;" edge="1" parent="1" source="IDwPl4FT_pPwottrv6kI-1" target="IDwPl4FT_pPwottrv6kI-71">
          <mxGeometry relative="1" as="geometry" />
        </mxCell>
        <mxCell id="IDwPl4FT_pPwottrv6kI-1" value="&lt;font style=&quot;font-size: 8px;&quot;&gt;操縱系統&lt;/font&gt;" style="rounded=1;whiteSpace=wrap;html=1;labelBackgroundColor=none;" vertex="1" parent="1">
          <mxGeometry x="550" y="100" width="60" height="20" as="geometry" />
        </mxCell>
        <mxCell id="IDwPl4FT_pPwottrv6kI-10" style="edgeStyle=orthogonalEdgeStyle;rounded=1;orthogonalLoop=1;jettySize=auto;html=1;exitX=0.5;exitY=1;exitDx=0;exitDy=0;entryX=0.5;entryY=0;entryDx=0;entryDy=0;labelBackgroundColor=none;fontColor=default;" edge="1" parent="1" source="IDwPl4FT_pPwottrv6kI-3" target="IDwPl4FT_pPwottrv6kI-8">
          <mxGeometry relative="1" as="geometry" />
        </mxCell>
        <mxCell id="IDwPl4FT_pPwottrv6kI-3" value="&lt;p&gt;&lt;font style=&quot;font-size: 8px;&quot;&gt;if 抓取按鈕&lt;/font&gt;&lt;/p&gt;" style="ellipse;whiteSpace=wrap;html=1;labelBackgroundColor=none;rounded=1;" vertex="1" parent="1">
          <mxGeometry x="550" y="140" width="60" height="20" as="geometry" />
        </mxCell>
        <mxCell id="IDwPl4FT_pPwottrv6kI-7" value="&lt;font style=&quot;font-size: 8px;&quot;&gt;暫停移動=True&lt;/font&gt;" style="shape=trapezoid;perimeter=trapezoidPerimeter;whiteSpace=wrap;html=1;fixedSize=1;labelBackgroundColor=none;rounded=1;" vertex="1" parent="1">
          <mxGeometry x="550" y="220" width="60" height="20" as="geometry" />
        </mxCell>
        <mxCell id="IDwPl4FT_pPwottrv6kI-11" style="edgeStyle=orthogonalEdgeStyle;rounded=1;orthogonalLoop=1;jettySize=auto;html=1;entryX=0.5;entryY=0;entryDx=0;entryDy=0;labelBackgroundColor=none;fontColor=default;" edge="1" parent="1" source="IDwPl4FT_pPwottrv6kI-8" target="IDwPl4FT_pPwottrv6kI-7">
          <mxGeometry relative="1" as="geometry" />
        </mxCell>
        <mxCell id="IDwPl4FT_pPwottrv6kI-8" value="&lt;font style=&quot;font-size: 8px;&quot;&gt;抓取子系統&lt;/font&gt;" style="rounded=1;whiteSpace=wrap;html=1;labelBackgroundColor=none;" vertex="1" parent="1">
          <mxGeometry x="550" y="180" width="60" height="20" as="geometry" />
        </mxCell>
        <mxCell id="IDwPl4FT_pPwottrv6kI-46" style="edgeStyle=orthogonalEdgeStyle;rounded=1;orthogonalLoop=1;jettySize=auto;html=1;exitX=0.5;exitY=1;exitDx=0;exitDy=0;entryX=0.5;entryY=0;entryDx=0;entryDy=0;" edge="1" parent="1" source="IDwPl4FT_pPwottrv6kI-12" target="IDwPl4FT_pPwottrv6kI-20">
          <mxGeometry relative="1" as="geometry" />
        </mxCell>
        <mxCell id="IDwPl4FT_pPwottrv6kI-12" value="&lt;font style=&quot;font-size: 8px;&quot;&gt;if 發射按鈕&lt;/font&gt;" style="ellipse;whiteSpace=wrap;html=1;labelBackgroundColor=none;rounded=1;" vertex="1" parent="1">
          <mxGeometry x="700" y="140" width="60" height="20" as="geometry" />
        </mxCell>
        <mxCell id="IDwPl4FT_pPwottrv6kI-24" style="edgeStyle=orthogonalEdgeStyle;rounded=1;orthogonalLoop=1;jettySize=auto;html=1;entryX=0.505;entryY=0.067;entryDx=0;entryDy=0;exitX=0.511;exitY=0.924;exitDx=0;exitDy=0;exitPerimeter=0;entryPerimeter=0;" edge="1" parent="1" source="IDwPl4FT_pPwottrv6kI-87" target="IDwPl4FT_pPwottrv6kI-19">
          <mxGeometry relative="1" as="geometry">
            <mxPoint x="580" y="320" as="sourcePoint" />
          </mxGeometry>
        </mxCell>
        <mxCell id="IDwPl4FT_pPwottrv6kI-26" style="edgeStyle=orthogonalEdgeStyle;rounded=1;orthogonalLoop=1;jettySize=auto;html=1;exitX=0;exitY=0.5;exitDx=0;exitDy=0;entryX=0.5;entryY=0;entryDx=0;entryDy=0;fillColor=#f8cecc;strokeColor=#b85450;" edge="1" parent="1" source="IDwPl4FT_pPwottrv6kI-19" target="IDwPl4FT_pPwottrv6kI-25">
          <mxGeometry relative="1" as="geometry" />
        </mxCell>
        <mxCell id="IDwPl4FT_pPwottrv6kI-27" value="No" style="edgeLabel;html=1;align=center;verticalAlign=middle;resizable=0;points=[];rounded=1;" vertex="1" connectable="0" parent="IDwPl4FT_pPwottrv6kI-26">
          <mxGeometry x="0.1417" y="-1" relative="1" as="geometry">
            <mxPoint as="offset" />
          </mxGeometry>
        </mxCell>
        <mxCell id="IDwPl4FT_pPwottrv6kI-30" style="edgeStyle=orthogonalEdgeStyle;rounded=1;orthogonalLoop=1;jettySize=auto;html=1;entryX=0.5;entryY=0;entryDx=0;entryDy=0;fillColor=#d5e8d4;strokeColor=#82b366;" edge="1" parent="1" source="IDwPl4FT_pPwottrv6kI-19" target="IDwPl4FT_pPwottrv6kI-28">
          <mxGeometry relative="1" as="geometry">
            <Array as="points">
              <mxPoint x="630" y="350" />
            </Array>
          </mxGeometry>
        </mxCell>
        <mxCell id="IDwPl4FT_pPwottrv6kI-44" value="Yes" style="edgeLabel;html=1;align=center;verticalAlign=middle;resizable=0;points=[];rounded=1;" vertex="1" connectable="0" parent="IDwPl4FT_pPwottrv6kI-30">
          <mxGeometry x="0.2872" y="1" relative="1" as="geometry">
            <mxPoint as="offset" />
          </mxGeometry>
        </mxCell>
        <mxCell id="IDwPl4FT_pPwottrv6kI-19" value="&lt;font style=&quot;font-size: 8px;&quot;&gt;抓到？&lt;/font&gt;" style="rhombus;whiteSpace=wrap;html=1;labelBackgroundColor=none;rounded=1;" vertex="1" parent="1">
          <mxGeometry x="550" y="340" width="60" height="20" as="geometry" />
        </mxCell>
        <mxCell id="IDwPl4FT_pPwottrv6kI-48" style="edgeStyle=orthogonalEdgeStyle;rounded=1;orthogonalLoop=1;jettySize=auto;html=1;exitX=0;exitY=0.5;exitDx=0;exitDy=0;fillColor=#f8cecc;strokeColor=#b85450;" edge="1" parent="1" source="IDwPl4FT_pPwottrv6kI-20" target="IDwPl4FT_pPwottrv6kI-47">
          <mxGeometry relative="1" as="geometry" />
        </mxCell>
        <mxCell id="IDwPl4FT_pPwottrv6kI-49" value="No" style="edgeLabel;html=1;align=center;verticalAlign=middle;resizable=0;points=[];rounded=1;" vertex="1" connectable="0" parent="IDwPl4FT_pPwottrv6kI-48">
          <mxGeometry x="0.2015" y="1" relative="1" as="geometry">
            <mxPoint x="-1" y="4" as="offset" />
          </mxGeometry>
        </mxCell>
        <mxCell id="IDwPl4FT_pPwottrv6kI-20" value="&lt;font style=&quot;font-size: 8px;&quot;&gt;庫存&amp;gt;0？&lt;/font&gt;" style="rhombus;whiteSpace=wrap;html=1;labelBackgroundColor=none;rounded=1;" vertex="1" parent="1">
          <mxGeometry x="700" y="180" width="60" height="20" as="geometry" />
        </mxCell>
        <mxCell id="IDwPl4FT_pPwottrv6kI-21" style="edgeStyle=orthogonalEdgeStyle;rounded=1;orthogonalLoop=1;jettySize=auto;html=1;exitX=0.5;exitY=1;exitDx=0;exitDy=0;entryX=0.503;entryY=0;entryDx=0;entryDy=0;entryPerimeter=0;" edge="1" parent="1" source="IDwPl4FT_pPwottrv6kI-7">
          <mxGeometry relative="1" as="geometry">
            <mxPoint x="580.1800000000001" y="260.00000000000006" as="targetPoint" />
          </mxGeometry>
        </mxCell>
        <mxCell id="IDwPl4FT_pPwottrv6kI-23" style="edgeStyle=orthogonalEdgeStyle;rounded=1;orthogonalLoop=1;jettySize=auto;html=1;entryX=0.522;entryY=0.118;entryDx=0;entryDy=0;entryPerimeter=0;" edge="1" parent="1" target="IDwPl4FT_pPwottrv6kI-87">
          <mxGeometry relative="1" as="geometry">
            <mxPoint x="580" y="280.00000000000006" as="sourcePoint" />
            <mxPoint x="580.66" y="300.44000000000005" as="targetPoint" />
          </mxGeometry>
        </mxCell>
        <mxCell id="IDwPl4FT_pPwottrv6kI-35" style="edgeStyle=orthogonalEdgeStyle;rounded=1;orthogonalLoop=1;jettySize=auto;html=1;exitX=0.5;exitY=1;exitDx=0;exitDy=0;fillColor=#d5e8d4;strokeColor=#82b366;" edge="1" parent="1" source="IDwPl4FT_pPwottrv6kI-25">
          <mxGeometry relative="1" as="geometry">
            <mxPoint x="530" y="420" as="targetPoint" />
          </mxGeometry>
        </mxCell>
        <mxCell id="IDwPl4FT_pPwottrv6kI-39" value="Yes" style="edgeLabel;html=1;align=center;verticalAlign=middle;resizable=0;points=[];rounded=1;" vertex="1" connectable="0" parent="IDwPl4FT_pPwottrv6kI-35">
          <mxGeometry x="-0.2356" y="-1" relative="1" as="geometry">
            <mxPoint as="offset" />
          </mxGeometry>
        </mxCell>
        <mxCell id="IDwPl4FT_pPwottrv6kI-25" value="&lt;font style=&quot;font-size: 8px;&quot;&gt;終止按鈕？&lt;/font&gt;" style="rhombus;whiteSpace=wrap;html=1;labelBackgroundColor=none;rounded=1;" vertex="1" parent="1">
          <mxGeometry x="500" y="380" width="60" height="20" as="geometry" />
        </mxCell>
        <mxCell id="IDwPl4FT_pPwottrv6kI-70" style="edgeStyle=orthogonalEdgeStyle;rounded=1;orthogonalLoop=1;jettySize=auto;html=1;entryX=0;entryY=0.5;entryDx=0;entryDy=0;" edge="1" parent="1" target="IDwPl4FT_pPwottrv6kI-50">
          <mxGeometry relative="1" as="geometry">
            <mxPoint x="660" y="390" as="sourcePoint" />
            <Array as="points">
              <mxPoint x="730" y="390" />
              <mxPoint x="730" y="230" />
            </Array>
          </mxGeometry>
        </mxCell>
        <mxCell id="IDwPl4FT_pPwottrv6kI-28" value="&lt;font style=&quot;font-size: 8px;&quot;&gt;飛盤庫存+=1&lt;/font&gt;" style="shape=trapezoid;perimeter=trapezoidPerimeter;whiteSpace=wrap;html=1;fixedSize=1;labelBackgroundColor=none;rounded=1;" vertex="1" parent="1">
          <mxGeometry x="600" y="380" width="60" height="20" as="geometry" />
        </mxCell>
        <mxCell id="IDwPl4FT_pPwottrv6kI-36" value="" style="verticalLabelPosition=bottom;verticalAlign=top;html=1;shape=mxgraph.basic.x;rounded=1;" vertex="1" parent="1">
          <mxGeometry x="520" y="420" width="20" height="20" as="geometry" />
        </mxCell>
        <mxCell id="IDwPl4FT_pPwottrv6kI-37" style="edgeStyle=orthogonalEdgeStyle;rounded=1;orthogonalLoop=1;jettySize=auto;html=1;exitX=0;exitY=0.5;exitDx=0;exitDy=0;entryX=0;entryY=0.5;entryDx=0;entryDy=0;entryPerimeter=0;fillColor=#f8cecc;strokeColor=#b85450;" edge="1" parent="1" source="IDwPl4FT_pPwottrv6kI-25" target="IDwPl4FT_pPwottrv6kI-86">
          <mxGeometry relative="1" as="geometry">
            <mxPoint x="550" y="270.00000000000006" as="targetPoint" />
            <Array as="points">
              <mxPoint x="480" y="390" />
              <mxPoint x="480" y="270" />
            </Array>
          </mxGeometry>
        </mxCell>
        <mxCell id="IDwPl4FT_pPwottrv6kI-41" value="No" style="edgeLabel;html=1;align=center;verticalAlign=middle;resizable=0;points=[];rounded=1;" vertex="1" connectable="0" parent="IDwPl4FT_pPwottrv6kI-37">
          <mxGeometry x="-0.2261" y="-1" relative="1" as="geometry">
            <mxPoint as="offset" />
          </mxGeometry>
        </mxCell>
        <mxCell id="IDwPl4FT_pPwottrv6kI-47" value="" style="verticalLabelPosition=bottom;verticalAlign=top;html=1;shape=mxgraph.basic.x;rounded=1;" vertex="1" parent="1">
          <mxGeometry x="660" y="220" width="20" height="20" as="geometry" />
        </mxCell>
        <mxCell id="IDwPl4FT_pPwottrv6kI-50" value="&lt;font style=&quot;font-size: 8px;&quot;&gt;發射子系統&lt;/font&gt;" style="rounded=1;whiteSpace=wrap;html=1;labelBackgroundColor=none;" vertex="1" parent="1">
          <mxGeometry x="760" y="220" width="60" height="20" as="geometry" />
        </mxCell>
        <mxCell id="IDwPl4FT_pPwottrv6kI-52" style="edgeStyle=orthogonalEdgeStyle;rounded=1;orthogonalLoop=1;jettySize=auto;html=1;exitX=1;exitY=0.5;exitDx=0;exitDy=0;entryX=0.513;entryY=-0.092;entryDx=0;entryDy=0;entryPerimeter=0;fillColor=#d5e8d4;strokeColor=#82b366;" edge="1" parent="1" source="IDwPl4FT_pPwottrv6kI-20" target="IDwPl4FT_pPwottrv6kI-50">
          <mxGeometry relative="1" as="geometry" />
        </mxCell>
        <mxCell id="IDwPl4FT_pPwottrv6kI-53" value="Yes" style="edgeLabel;html=1;align=center;verticalAlign=middle;resizable=0;points=[];rounded=1;" vertex="1" connectable="0" parent="IDwPl4FT_pPwottrv6kI-52">
          <mxGeometry x="0.2504" y="-2" relative="1" as="geometry">
            <mxPoint x="1" y="4" as="offset" />
          </mxGeometry>
        </mxCell>
        <mxCell id="IDwPl4FT_pPwottrv6kI-54" value="&lt;font style=&quot;font-size: 8px;&quot;&gt;瞄準&lt;/font&gt;" style="html=1;shadow=0;dashed=0;align=center;verticalAlign=middle;shape=mxgraph.arrows2.arrow;dy=0.6;dx=40;notch=0;labelBackgroundColor=none;rounded=1;" vertex="1" parent="1">
          <mxGeometry x="760" y="260" width="60" height="20" as="geometry" />
        </mxCell>
        <mxCell id="IDwPl4FT_pPwottrv6kI-59" style="edgeStyle=orthogonalEdgeStyle;rounded=1;orthogonalLoop=1;jettySize=auto;html=1;entryX=0.5;entryY=0;entryDx=0;entryDy=0;" edge="1" parent="1" source="IDwPl4FT_pPwottrv6kI-55" target="IDwPl4FT_pPwottrv6kI-58">
          <mxGeometry relative="1" as="geometry" />
        </mxCell>
        <mxCell id="IDwPl4FT_pPwottrv6kI-55" value="&lt;font style=&quot;font-size: 8px;&quot;&gt;手臂發射&lt;/font&gt;" style="html=1;shadow=0;dashed=0;align=center;verticalAlign=middle;shape=mxgraph.arrows2.arrow;dy=0.6;dx=40;notch=0;labelBackgroundColor=none;rounded=1;" vertex="1" parent="1">
          <mxGeometry x="760" y="300" width="60" height="20" as="geometry" />
        </mxCell>
        <mxCell id="IDwPl4FT_pPwottrv6kI-56" style="edgeStyle=orthogonalEdgeStyle;rounded=1;orthogonalLoop=1;jettySize=auto;html=1;entryX=0.5;entryY=0;entryDx=0;entryDy=0;entryPerimeter=0;" edge="1" parent="1" source="IDwPl4FT_pPwottrv6kI-50" target="IDwPl4FT_pPwottrv6kI-54">
          <mxGeometry relative="1" as="geometry" />
        </mxCell>
        <mxCell id="IDwPl4FT_pPwottrv6kI-57" style="edgeStyle=orthogonalEdgeStyle;rounded=1;orthogonalLoop=1;jettySize=auto;html=1;entryX=0.5;entryY=0;entryDx=0;entryDy=0;entryPerimeter=0;" edge="1" parent="1" source="IDwPl4FT_pPwottrv6kI-54" target="IDwPl4FT_pPwottrv6kI-55">
          <mxGeometry relative="1" as="geometry" />
        </mxCell>
        <mxCell id="IDwPl4FT_pPwottrv6kI-61" style="edgeStyle=orthogonalEdgeStyle;rounded=1;orthogonalLoop=1;jettySize=auto;html=1;entryX=0.5;entryY=0;entryDx=0;entryDy=0;" edge="1" parent="1" source="IDwPl4FT_pPwottrv6kI-58" target="IDwPl4FT_pPwottrv6kI-60">
          <mxGeometry relative="1" as="geometry" />
        </mxCell>
        <mxCell id="IDwPl4FT_pPwottrv6kI-58" value="&lt;font style=&quot;font-size: 8px;&quot;&gt;飛盤庫存-=1&lt;/font&gt;" style="shape=trapezoid;perimeter=trapezoidPerimeter;whiteSpace=wrap;html=1;fixedSize=1;labelBackgroundColor=none;rounded=1;" vertex="1" parent="1">
          <mxGeometry x="760" y="340" width="60" height="20" as="geometry" />
        </mxCell>
        <mxCell id="IDwPl4FT_pPwottrv6kI-63" style="edgeStyle=orthogonalEdgeStyle;rounded=1;orthogonalLoop=1;jettySize=auto;html=1;entryX=0.5;entryY=0;entryDx=0;entryDy=0;fillColor=#f8cecc;strokeColor=#b85450;" edge="1" parent="1" source="IDwPl4FT_pPwottrv6kI-60" target="IDwPl4FT_pPwottrv6kI-62">
          <mxGeometry relative="1" as="geometry" />
        </mxCell>
        <mxCell id="IDwPl4FT_pPwottrv6kI-64" value="No" style="edgeLabel;html=1;align=center;verticalAlign=middle;resizable=0;points=[];rounded=1;" vertex="1" connectable="0" parent="IDwPl4FT_pPwottrv6kI-63">
          <mxGeometry x="0.1204" y="2" relative="1" as="geometry">
            <mxPoint x="2" as="offset" />
          </mxGeometry>
        </mxCell>
        <mxCell id="IDwPl4FT_pPwottrv6kI-66" style="edgeStyle=orthogonalEdgeStyle;rounded=1;orthogonalLoop=1;jettySize=auto;html=1;exitX=1;exitY=0.5;exitDx=0;exitDy=0;entryX=0.5;entryY=0;entryDx=0;entryDy=0;fillColor=#d5e8d4;strokeColor=#82b366;" edge="1" parent="1" source="IDwPl4FT_pPwottrv6kI-60" target="IDwPl4FT_pPwottrv6kI-65">
          <mxGeometry relative="1" as="geometry" />
        </mxCell>
        <mxCell id="IDwPl4FT_pPwottrv6kI-67" value="Yes" style="edgeLabel;html=1;align=center;verticalAlign=middle;resizable=0;points=[];rounded=1;" vertex="1" connectable="0" parent="IDwPl4FT_pPwottrv6kI-66">
          <mxGeometry x="0.5099" y="-1" relative="1" as="geometry">
            <mxPoint as="offset" />
          </mxGeometry>
        </mxCell>
        <mxCell id="IDwPl4FT_pPwottrv6kI-60" value="&lt;font style=&quot;font-size: 8px;&quot;&gt;庫存？&lt;/font&gt;" style="rhombus;whiteSpace=wrap;html=1;labelBackgroundColor=none;rounded=1;" vertex="1" parent="1">
          <mxGeometry x="760" y="380" width="60" height="20" as="geometry" />
        </mxCell>
        <mxCell id="IDwPl4FT_pPwottrv6kI-62" value="&lt;font style=&quot;font-size: 8px;&quot;&gt;中斷移動=False&lt;/font&gt;" style="shape=trapezoid;perimeter=trapezoidPerimeter;whiteSpace=wrap;html=1;fixedSize=1;labelBackgroundColor=none;rounded=1;" vertex="1" parent="1">
          <mxGeometry x="760" y="420" width="60" height="20" as="geometry" />
        </mxCell>
        <mxCell id="IDwPl4FT_pPwottrv6kI-68" style="edgeStyle=orthogonalEdgeStyle;rounded=1;orthogonalLoop=1;jettySize=auto;html=1;exitX=0;exitY=0.5;exitDx=0;exitDy=0;fillColor=#d5e8d4;strokeColor=#82b366;" edge="1" parent="1" source="IDwPl4FT_pPwottrv6kI-65">
          <mxGeometry relative="1" as="geometry">
            <mxPoint x="820" y="430" as="targetPoint" />
          </mxGeometry>
        </mxCell>
        <mxCell id="IDwPl4FT_pPwottrv6kI-69" value="Yes" style="edgeLabel;html=1;align=center;verticalAlign=middle;resizable=0;points=[];rounded=1;" vertex="1" connectable="0" parent="IDwPl4FT_pPwottrv6kI-68">
          <mxGeometry x="-0.1714" y="-1" relative="1" as="geometry">
            <mxPoint x="1" y="1" as="offset" />
          </mxGeometry>
        </mxCell>
        <mxCell id="IDwPl4FT_pPwottrv6kI-65" value="&lt;font style=&quot;font-size: 8px;&quot;&gt;終止按鈕？&lt;/font&gt;" style="rhombus;whiteSpace=wrap;html=1;labelBackgroundColor=none;rounded=1;" vertex="1" parent="1">
          <mxGeometry x="860" y="420" width="60" height="20" as="geometry" />
        </mxCell>
        <mxCell id="IDwPl4FT_pPwottrv6kI-77" style="edgeStyle=orthogonalEdgeStyle;rounded=1;orthogonalLoop=1;jettySize=auto;html=1;entryX=0.5;entryY=0;entryDx=0;entryDy=0;" edge="1" parent="1" source="IDwPl4FT_pPwottrv6kI-71" target="IDwPl4FT_pPwottrv6kI-72">
          <mxGeometry relative="1" as="geometry" />
        </mxCell>
        <mxCell id="IDwPl4FT_pPwottrv6kI-71" value="&lt;p&gt;&lt;font style=&quot;font-size: 8px;&quot;&gt;if 移動&lt;/font&gt;&lt;/p&gt;" style="ellipse;whiteSpace=wrap;html=1;labelBackgroundColor=none;rounded=1;" vertex="1" parent="1">
          <mxGeometry x="450" y="140" width="60" height="20" as="geometry" />
        </mxCell>
        <mxCell id="IDwPl4FT_pPwottrv6kI-74" style="edgeStyle=orthogonalEdgeStyle;rounded=1;orthogonalLoop=1;jettySize=auto;html=1;fillColor=#d5e8d4;strokeColor=#82b366;" edge="1" parent="1" source="IDwPl4FT_pPwottrv6kI-72" target="IDwPl4FT_pPwottrv6kI-73">
          <mxGeometry relative="1" as="geometry" />
        </mxCell>
        <mxCell id="IDwPl4FT_pPwottrv6kI-75" value="Yes" style="edgeLabel;html=1;align=center;verticalAlign=middle;resizable=0;points=[];rounded=1;" vertex="1" connectable="0" parent="IDwPl4FT_pPwottrv6kI-74">
          <mxGeometry x="0.642" y="-3" relative="1" as="geometry">
            <mxPoint x="3" as="offset" />
          </mxGeometry>
        </mxCell>
        <mxCell id="IDwPl4FT_pPwottrv6kI-79" style="edgeStyle=orthogonalEdgeStyle;rounded=1;orthogonalLoop=1;jettySize=auto;html=1;entryX=0.5;entryY=0;entryDx=0;entryDy=0;fillColor=#f8cecc;strokeColor=#b85450;" edge="1" parent="1" source="IDwPl4FT_pPwottrv6kI-72" target="IDwPl4FT_pPwottrv6kI-78">
          <mxGeometry relative="1" as="geometry" />
        </mxCell>
        <mxCell id="IDwPl4FT_pPwottrv6kI-80" value="No" style="edgeLabel;html=1;align=center;verticalAlign=middle;resizable=0;points=[];rounded=1;" vertex="1" connectable="0" parent="IDwPl4FT_pPwottrv6kI-79">
          <mxGeometry x="-0.1179" y="1" relative="1" as="geometry">
            <mxPoint as="offset" />
          </mxGeometry>
        </mxCell>
        <mxCell id="IDwPl4FT_pPwottrv6kI-72" value="&lt;font style=&quot;font-size: 8px;&quot;&gt;中斷移動？&lt;/font&gt;" style="rhombus;whiteSpace=wrap;html=1;labelBackgroundColor=none;rounded=1;" vertex="1" parent="1">
          <mxGeometry x="450" y="180" width="60" height="20" as="geometry" />
        </mxCell>
        <mxCell id="IDwPl4FT_pPwottrv6kI-73" value="" style="verticalLabelPosition=bottom;verticalAlign=top;html=1;shape=mxgraph.basic.x;rounded=1;" vertex="1" parent="1">
          <mxGeometry x="470" y="220" width="20" height="20" as="geometry" />
        </mxCell>
        <mxCell id="IDwPl4FT_pPwottrv6kI-89" style="edgeStyle=orthogonalEdgeStyle;rounded=1;orthogonalLoop=1;jettySize=auto;html=1;entryX=0.5;entryY=0;entryDx=0;entryDy=0;" edge="1" parent="1" source="IDwPl4FT_pPwottrv6kI-78" target="IDwPl4FT_pPwottrv6kI-81">
          <mxGeometry relative="1" as="geometry" />
        </mxCell>
        <mxCell id="IDwPl4FT_pPwottrv6kI-91" style="edgeStyle=orthogonalEdgeStyle;rounded=1;orthogonalLoop=1;jettySize=auto;html=1;entryX=0.5;entryY=0;entryDx=0;entryDy=0;" edge="1" parent="1" source="IDwPl4FT_pPwottrv6kI-78" target="IDwPl4FT_pPwottrv6kI-82">
          <mxGeometry relative="1" as="geometry">
            <mxPoint x="430" y="250" as="targetPoint" />
          </mxGeometry>
        </mxCell>
        <mxCell id="IDwPl4FT_pPwottrv6kI-92" style="edgeStyle=orthogonalEdgeStyle;rounded=1;orthogonalLoop=1;jettySize=auto;html=1;" edge="1" parent="1" source="IDwPl4FT_pPwottrv6kI-78" target="IDwPl4FT_pPwottrv6kI-83">
          <mxGeometry relative="1" as="geometry" />
        </mxCell>
        <mxCell id="IDwPl4FT_pPwottrv6kI-78" value="&lt;font style=&quot;font-size: 8px;&quot;&gt;移動子系統&lt;/font&gt;" style="rounded=1;whiteSpace=wrap;html=1;labelBackgroundColor=none;" vertex="1" parent="1">
          <mxGeometry x="350" y="220" width="60" height="20" as="geometry" />
        </mxCell>
        <mxCell id="IDwPl4FT_pPwottrv6kI-81" value="&lt;p&gt;&lt;font style=&quot;font-size: 8px;&quot;&gt;if 轉彎&lt;/font&gt;&lt;/p&gt;" style="ellipse;whiteSpace=wrap;html=1;labelBackgroundColor=none;rounded=1;" vertex="1" parent="1">
          <mxGeometry x="360" y="260" width="40" height="20" as="geometry" />
        </mxCell>
        <mxCell id="IDwPl4FT_pPwottrv6kI-82" value="&lt;p&gt;&lt;font style=&quot;font-size: 8px;&quot;&gt;if 旋轉&lt;/font&gt;&lt;/p&gt;" style="ellipse;whiteSpace=wrap;html=1;labelBackgroundColor=none;rounded=1;" vertex="1" parent="1">
          <mxGeometry x="420" y="260" width="40" height="20" as="geometry" />
        </mxCell>
        <mxCell id="IDwPl4FT_pPwottrv6kI-83" value="&lt;p&gt;&lt;font style=&quot;font-size: 8px;&quot;&gt;if 直走&lt;/font&gt;&lt;/p&gt;" style="ellipse;whiteSpace=wrap;html=1;labelBackgroundColor=none;rounded=1;" vertex="1" parent="1">
          <mxGeometry x="300" y="260" width="40" height="20" as="geometry" />
        </mxCell>
        <mxCell id="IDwPl4FT_pPwottrv6kI-86" value="&lt;font style=&quot;font-size: 8px;&quot;&gt;瞄準&lt;/font&gt;" style="html=1;shadow=0;dashed=0;align=center;verticalAlign=middle;shape=mxgraph.arrows2.arrow;dy=0;dx=10;notch=0;rounded=1;" vertex="1" parent="1">
          <mxGeometry x="560" y="260" width="40" height="20" as="geometry" />
        </mxCell>
        <mxCell id="IDwPl4FT_pPwottrv6kI-87" value="&lt;font style=&quot;font-size: 8px;&quot;&gt;手臂抓取&lt;/font&gt;" style="html=1;shadow=0;dashed=0;align=center;verticalAlign=middle;shape=mxgraph.arrows2.arrow;dy=0;dx=10;notch=0;rounded=1;" vertex="1" parent="1">
          <mxGeometry x="560" y="300" width="40" height="20" as="geometry" />
        </mxCell>
        <mxCell id="IDwPl4FT_pPwottrv6kI-93" value="&lt;font style=&quot;font-size: 8px;&quot;&gt;直走&lt;/font&gt;" style="html=1;shadow=0;dashed=0;align=center;verticalAlign=middle;shape=mxgraph.arrows2.arrow;dy=0;dx=10;notch=0;rounded=1;" vertex="1" parent="1">
          <mxGeometry x="300" y="300" width="40" height="20" as="geometry" />
        </mxCell>
        <mxCell id="IDwPl4FT_pPwottrv6kI-94" value="&lt;font style=&quot;font-size: 8px;&quot;&gt;轉彎&lt;/font&gt;" style="html=1;shadow=0;dashed=0;align=center;verticalAlign=middle;shape=mxgraph.arrows2.arrow;dy=0;dx=10;notch=0;rounded=1;" vertex="1" parent="1">
          <mxGeometry x="360" y="300" width="40" height="20" as="geometry" />
        </mxCell>
        <mxCell id="IDwPl4FT_pPwottrv6kI-95" value="&lt;span style=&quot;font-size: 8px;&quot;&gt;旋轉&lt;/span&gt;" style="html=1;shadow=0;dashed=0;align=center;verticalAlign=middle;shape=mxgraph.arrows2.arrow;dy=0;dx=10;notch=0;rounded=1;" vertex="1" parent="1">
          <mxGeometry x="420" y="300" width="40" height="20" as="geometry" />
        </mxCell>
        <mxCell id="IDwPl4FT_pPwottrv6kI-97" style="edgeStyle=orthogonalEdgeStyle;rounded=1;orthogonalLoop=1;jettySize=auto;html=1;entryX=0.5;entryY=0;entryDx=0;entryDy=0;entryPerimeter=0;" edge="1" parent="1" source="IDwPl4FT_pPwottrv6kI-83" target="IDwPl4FT_pPwottrv6kI-93">
          <mxGeometry relative="1" as="geometry" />
        </mxCell>
        <mxCell id="IDwPl4FT_pPwottrv6kI-98" style="edgeStyle=orthogonalEdgeStyle;rounded=1;orthogonalLoop=1;jettySize=auto;html=1;entryX=0.514;entryY=0.042;entryDx=0;entryDy=0;entryPerimeter=0;" edge="1" parent="1" source="IDwPl4FT_pPwottrv6kI-81" target="IDwPl4FT_pPwottrv6kI-94">
          <mxGeometry relative="1" as="geometry" />
        </mxCell>
        <mxCell id="IDwPl4FT_pPwottrv6kI-99" style="edgeStyle=orthogonalEdgeStyle;rounded=1;orthogonalLoop=1;jettySize=auto;html=1;entryX=0.5;entryY=0;entryDx=0;entryDy=0;entryPerimeter=0;" edge="1" parent="1" source="IDwPl4FT_pPwottrv6kI-82" target="IDwPl4FT_pPwottrv6kI-95">
          <mxGeometry relative="1" as="geometry" />
        </mxCell>
      </root>
    </mxGraphModel>
  </diagram>
</mxfile>
